<mxfile host="app.diagrams.net" modified="2023-11-26T18:05:31.170Z" agent="Mozilla/5.0 (Windows NT 10.0; Win64; x64) AppleWebKit/537.36 (KHTML, like Gecko) Chrome/119.0.0.0 Safari/537.36" etag="2Dwj66Lo1lk21YYbSn15" version="22.1.4" type="github">
  <diagram id="C5RBs43oDa-KdzZeNtuy" name="Page-1">
    <mxGraphModel dx="794" dy="456" grid="1" gridSize="10" guides="1" tooltips="1" connect="1" arrows="1" fold="1" page="1" pageScale="1" pageWidth="827" pageHeight="1169" math="0" shadow="0">
      <root>
        <mxCell id="WIyWlLk6GJQsqaUBKTNV-0" />
        <mxCell id="WIyWlLk6GJQsqaUBKTNV-1" parent="WIyWlLk6GJQsqaUBKTNV-0" />
        <mxCell id="MrmSSrUXQrmDpd-LHNPz-18" value="User" style="swimlane;fontStyle=0;childLayout=stackLayout;horizontal=1;startSize=30;horizontalStack=0;resizeParent=1;resizeParentMax=0;resizeLast=0;collapsible=1;marginBottom=0;whiteSpace=wrap;html=1;fillColor=#f8cecc;strokeColor=#b85450;" vertex="1" parent="WIyWlLk6GJQsqaUBKTNV-1">
          <mxGeometry x="50" y="150" width="140" height="130" as="geometry" />
        </mxCell>
        <mxCell id="MrmSSrUXQrmDpd-LHNPz-22" value="UserID&lt;br&gt;Phone&lt;br&gt;Email&lt;br&gt;Password&lt;br&gt;Profile&lt;br&gt;Order [ ]&lt;br&gt;" style="text;html=1;align=center;verticalAlign=middle;resizable=0;points=[];autosize=1;strokeColor=none;fillColor=none;" vertex="1" parent="MrmSSrUXQrmDpd-LHNPz-18">
          <mxGeometry y="30" width="140" height="100" as="geometry" />
        </mxCell>
        <mxCell id="MrmSSrUXQrmDpd-LHNPz-23" value="UserID&lt;br&gt;Phone&lt;br&gt;Email&lt;br&gt;Password&lt;br&gt;Profile&lt;br&gt;Order [ ]&lt;br&gt;" style="text;html=1;align=center;verticalAlign=middle;resizable=0;points=[];autosize=1;strokeColor=none;fillColor=none;" vertex="1" parent="WIyWlLk6GJQsqaUBKTNV-1">
          <mxGeometry x="50" y="180" width="140" height="100" as="geometry" />
        </mxCell>
        <mxCell id="MrmSSrUXQrmDpd-LHNPz-24" value="Cuopon" style="swimlane;fontStyle=0;childLayout=stackLayout;horizontal=1;startSize=30;horizontalStack=0;resizeParent=1;resizeParentMax=0;resizeLast=0;collapsible=1;marginBottom=0;whiteSpace=wrap;html=1;fillColor=#f8cecc;strokeColor=#b85450;" vertex="1" parent="WIyWlLk6GJQsqaUBKTNV-1">
          <mxGeometry x="280" y="360" width="140" height="90" as="geometry" />
        </mxCell>
        <mxCell id="MrmSSrUXQrmDpd-LHNPz-28" value="ID&lt;br&gt;DueTime&lt;br&gt;Amount" style="text;html=1;align=center;verticalAlign=middle;resizable=0;points=[];autosize=1;strokeColor=none;fillColor=none;" vertex="1" parent="MrmSSrUXQrmDpd-LHNPz-24">
          <mxGeometry y="30" width="140" height="60" as="geometry" />
        </mxCell>
        <mxCell id="MrmSSrUXQrmDpd-LHNPz-30" value="" style="endArrow=classic;html=1;rounded=0;exitX=0.61;exitY=1.047;exitDx=0;exitDy=0;exitPerimeter=0;entryX=-0.024;entryY=0.156;entryDx=0;entryDy=0;entryPerimeter=0;" edge="1" parent="WIyWlLk6GJQsqaUBKTNV-1" source="MrmSSrUXQrmDpd-LHNPz-23" target="MrmSSrUXQrmDpd-LHNPz-24">
          <mxGeometry width="50" height="50" relative="1" as="geometry">
            <mxPoint x="410" y="380" as="sourcePoint" />
            <mxPoint x="460" y="330" as="targetPoint" />
          </mxGeometry>
        </mxCell>
        <mxCell id="MrmSSrUXQrmDpd-LHNPz-32" value="Use" style="text;html=1;align=center;verticalAlign=middle;resizable=0;points=[];autosize=1;strokeColor=none;fillColor=none;" vertex="1" parent="WIyWlLk6GJQsqaUBKTNV-1">
          <mxGeometry x="190" y="300" width="40" height="30" as="geometry" />
        </mxCell>
        <mxCell id="MrmSSrUXQrmDpd-LHNPz-33" value="1" style="text;html=1;strokeColor=none;fillColor=none;align=center;verticalAlign=middle;whiteSpace=wrap;rounded=0;" vertex="1" parent="WIyWlLk6GJQsqaUBKTNV-1">
          <mxGeometry x="150" y="290" width="60" height="30" as="geometry" />
        </mxCell>
        <mxCell id="MrmSSrUXQrmDpd-LHNPz-34" value="0.. many" style="text;html=1;strokeColor=none;fillColor=none;align=center;verticalAlign=middle;whiteSpace=wrap;rounded=0;" vertex="1" parent="WIyWlLk6GJQsqaUBKTNV-1">
          <mxGeometry x="240" y="330" width="60" height="30" as="geometry" />
        </mxCell>
        <mxCell id="MrmSSrUXQrmDpd-LHNPz-36" value="Book" style="swimlane;fontStyle=0;childLayout=stackLayout;horizontal=1;startSize=30;horizontalStack=0;resizeParent=1;resizeParentMax=0;resizeLast=0;collapsible=1;marginBottom=0;whiteSpace=wrap;html=1;fillColor=#f8cecc;strokeColor=#b85450;" vertex="1" parent="WIyWlLk6GJQsqaUBKTNV-1">
          <mxGeometry x="620" y="130" width="150" height="160" as="geometry" />
        </mxCell>
        <mxCell id="MrmSSrUXQrmDpd-LHNPz-40" value="BookID&lt;br&gt;Name&lt;br&gt;QRCode&lt;br&gt;Author&lt;br&gt;TimePuplish&lt;br&gt;Price&lt;br&gt;Review&lt;br&gt;Rating" style="text;html=1;align=center;verticalAlign=middle;resizable=0;points=[];autosize=1;strokeColor=none;fillColor=none;" vertex="1" parent="MrmSSrUXQrmDpd-LHNPz-36">
          <mxGeometry y="30" width="150" height="130" as="geometry" />
        </mxCell>
        <mxCell id="MrmSSrUXQrmDpd-LHNPz-41" value="" style="endArrow=classic;html=1;rounded=0;exitX=0.91;exitY=0.007;exitDx=0;exitDy=0;exitPerimeter=0;entryX=0.493;entryY=1.01;entryDx=0;entryDy=0;entryPerimeter=0;" edge="1" parent="WIyWlLk6GJQsqaUBKTNV-1" source="MrmSSrUXQrmDpd-LHNPz-24" target="MrmSSrUXQrmDpd-LHNPz-40">
          <mxGeometry width="50" height="50" relative="1" as="geometry">
            <mxPoint x="410" y="380" as="sourcePoint" />
            <mxPoint x="460" y="330" as="targetPoint" />
          </mxGeometry>
        </mxCell>
        <mxCell id="MrmSSrUXQrmDpd-LHNPz-42" value="0.." style="text;html=1;strokeColor=none;fillColor=none;align=center;verticalAlign=middle;whiteSpace=wrap;rounded=0;" vertex="1" parent="WIyWlLk6GJQsqaUBKTNV-1">
          <mxGeometry x="390" y="330" width="60" height="30" as="geometry" />
        </mxCell>
        <mxCell id="MrmSSrUXQrmDpd-LHNPz-43" value="0.." style="text;html=1;strokeColor=none;fillColor=none;align=center;verticalAlign=middle;whiteSpace=wrap;rounded=0;" vertex="1" parent="WIyWlLk6GJQsqaUBKTNV-1">
          <mxGeometry x="580" y="280" width="60" height="30" as="geometry" />
        </mxCell>
        <mxCell id="MrmSSrUXQrmDpd-LHNPz-44" value="Applay" style="text;html=1;strokeColor=none;fillColor=none;align=center;verticalAlign=middle;whiteSpace=wrap;rounded=0;" vertex="1" parent="WIyWlLk6GJQsqaUBKTNV-1">
          <mxGeometry x="490" y="310" width="60" height="30" as="geometry" />
        </mxCell>
        <mxCell id="MrmSSrUXQrmDpd-LHNPz-46" value="Comment" style="swimlane;fontStyle=0;childLayout=stackLayout;horizontal=1;startSize=30;horizontalStack=0;resizeParent=1;resizeParentMax=0;resizeLast=0;collapsible=1;marginBottom=0;whiteSpace=wrap;html=1;fillColor=#f8cecc;strokeColor=#b85450;" vertex="1" parent="WIyWlLk6GJQsqaUBKTNV-1">
          <mxGeometry x="370" y="90" width="140" height="90" as="geometry" />
        </mxCell>
        <mxCell id="MrmSSrUXQrmDpd-LHNPz-50" value="Content&lt;br&gt;Time&lt;br&gt;UserId" style="text;html=1;align=center;verticalAlign=middle;resizable=0;points=[];autosize=1;strokeColor=none;fillColor=none;" vertex="1" parent="MrmSSrUXQrmDpd-LHNPz-46">
          <mxGeometry y="30" width="140" height="60" as="geometry" />
        </mxCell>
        <mxCell id="MrmSSrUXQrmDpd-LHNPz-51" value="" style="endArrow=classic;html=1;rounded=0;exitX=0.4;exitY=1.056;exitDx=0;exitDy=0;exitPerimeter=0;entryX=-0.022;entryY=0.631;entryDx=0;entryDy=0;entryPerimeter=0;" edge="1" parent="WIyWlLk6GJQsqaUBKTNV-1" source="MrmSSrUXQrmDpd-LHNPz-50" target="MrmSSrUXQrmDpd-LHNPz-40">
          <mxGeometry width="50" height="50" relative="1" as="geometry">
            <mxPoint x="450" y="340" as="sourcePoint" />
            <mxPoint x="500" y="290" as="targetPoint" />
          </mxGeometry>
        </mxCell>
        <mxCell id="MrmSSrUXQrmDpd-LHNPz-52" value="0.." style="text;html=1;strokeColor=none;fillColor=none;align=center;verticalAlign=middle;whiteSpace=wrap;rounded=0;" vertex="1" parent="WIyWlLk6GJQsqaUBKTNV-1">
          <mxGeometry x="400" y="180" width="60" height="30" as="geometry" />
        </mxCell>
        <mxCell id="MrmSSrUXQrmDpd-LHNPz-53" value="1" style="text;html=1;strokeColor=none;fillColor=none;align=center;verticalAlign=middle;whiteSpace=wrap;rounded=0;" vertex="1" parent="WIyWlLk6GJQsqaUBKTNV-1">
          <mxGeometry x="580" y="210" width="60" height="30" as="geometry" />
        </mxCell>
        <mxCell id="MrmSSrUXQrmDpd-LHNPz-55" value="ShoppingCart" style="swimlane;fontStyle=0;childLayout=stackLayout;horizontal=1;startSize=40;horizontalStack=0;resizeParent=1;resizeParentMax=0;resizeLast=0;collapsible=1;marginBottom=0;whiteSpace=wrap;html=1;fillColor=#f8cecc;strokeColor=#b85450;" vertex="1" parent="WIyWlLk6GJQsqaUBKTNV-1">
          <mxGeometry x="530" y="480" width="200" height="140" as="geometry" />
        </mxCell>
        <mxCell id="MrmSSrUXQrmDpd-LHNPz-59" value="&lt;div style=&quot;&quot;&gt;&lt;span style=&quot;background-color: initial;&quot;&gt;&lt;font style=&quot;font-size: 12px;&quot;&gt;Book [ ]&amp;nbsp;&lt;/font&gt;&lt;/span&gt;&lt;/div&gt;&lt;font style=&quot;font-size: 12px;&quot;&gt;&lt;div style=&quot;&quot;&gt;&lt;span style=&quot;background-color: initial;&quot;&gt;BookSum&lt;/span&gt;&lt;/div&gt;&lt;div style=&quot;&quot;&gt;&lt;span style=&quot;background-color: initial;&quot;&gt;PriceSum&lt;/span&gt;&lt;/div&gt;&lt;div style=&quot;&quot;&gt;&lt;span style=&quot;background-color: initial;&quot;&gt;CartID&lt;/span&gt;&lt;/div&gt;&lt;div style=&quot;&quot;&gt;&lt;span style=&quot;background-color: initial;&quot;&gt;UserID&lt;/span&gt;&lt;/div&gt;&lt;/font&gt;" style="text;html=1;strokeColor=none;fillColor=none;align=center;verticalAlign=middle;whiteSpace=wrap;rounded=0;" vertex="1" parent="MrmSSrUXQrmDpd-LHNPz-55">
          <mxGeometry y="40" width="200" height="100" as="geometry" />
        </mxCell>
        <mxCell id="MrmSSrUXQrmDpd-LHNPz-61" value="" style="endArrow=classic;html=1;rounded=0;exitX=0.387;exitY=-0.029;exitDx=0;exitDy=0;exitPerimeter=0;entryX=0.618;entryY=1.015;entryDx=0;entryDy=0;entryPerimeter=0;" edge="1" parent="WIyWlLk6GJQsqaUBKTNV-1" source="MrmSSrUXQrmDpd-LHNPz-55" target="MrmSSrUXQrmDpd-LHNPz-40">
          <mxGeometry width="50" height="50" relative="1" as="geometry">
            <mxPoint x="430" y="440" as="sourcePoint" />
            <mxPoint x="480" y="390" as="targetPoint" />
          </mxGeometry>
        </mxCell>
        <mxCell id="MrmSSrUXQrmDpd-LHNPz-62" value="1" style="text;html=1;strokeColor=none;fillColor=none;align=center;verticalAlign=middle;whiteSpace=wrap;rounded=0;" vertex="1" parent="WIyWlLk6GJQsqaUBKTNV-1">
          <mxGeometry x="560" y="460" width="60" height="30" as="geometry" />
        </mxCell>
        <mxCell id="MrmSSrUXQrmDpd-LHNPz-63" value="0.." style="text;html=1;strokeColor=none;fillColor=none;align=center;verticalAlign=middle;whiteSpace=wrap;rounded=0;" vertex="1" parent="WIyWlLk6GJQsqaUBKTNV-1">
          <mxGeometry x="700" y="290" width="60" height="30" as="geometry" />
        </mxCell>
        <mxCell id="MrmSSrUXQrmDpd-LHNPz-64" value="Contain" style="text;html=1;strokeColor=none;fillColor=none;align=center;verticalAlign=middle;whiteSpace=wrap;rounded=0;" vertex="1" parent="WIyWlLk6GJQsqaUBKTNV-1">
          <mxGeometry x="640" y="400" width="60" height="30" as="geometry" />
        </mxCell>
        <mxCell id="MrmSSrUXQrmDpd-LHNPz-65" value="Data" style="swimlane;fontStyle=0;childLayout=stackLayout;horizontal=1;startSize=30;horizontalStack=0;resizeParent=1;resizeParentMax=0;resizeLast=0;collapsible=1;marginBottom=0;whiteSpace=wrap;html=1;fillColor=#f8cecc;strokeColor=#b85450;" vertex="1" parent="WIyWlLk6GJQsqaUBKTNV-1">
          <mxGeometry x="80" y="520" width="120" height="90" as="geometry" />
        </mxCell>
        <mxCell id="MrmSSrUXQrmDpd-LHNPz-67" value="UserData&lt;br&gt;BookData" style="text;strokeColor=none;fillColor=none;align=left;verticalAlign=middle;spacingLeft=4;spacingRight=4;overflow=hidden;points=[[0,0.5],[1,0.5]];portConstraint=eastwest;rotatable=0;whiteSpace=wrap;html=1;" vertex="1" parent="MrmSSrUXQrmDpd-LHNPz-65">
          <mxGeometry y="30" width="120" height="60" as="geometry" />
        </mxCell>
        <mxCell id="MrmSSrUXQrmDpd-LHNPz-69" value="" style="endArrow=classic;html=1;rounded=0;exitX=0.322;exitY=-0.037;exitDx=0;exitDy=0;exitPerimeter=0;entryX=1;entryY=0;entryDx=0;entryDy=0;" edge="1" parent="WIyWlLk6GJQsqaUBKTNV-1" source="MrmSSrUXQrmDpd-LHNPz-65" target="MrmSSrUXQrmDpd-LHNPz-71">
          <mxGeometry width="50" height="50" relative="1" as="geometry">
            <mxPoint x="370" y="520" as="sourcePoint" />
            <mxPoint x="420" y="470" as="targetPoint" />
          </mxGeometry>
        </mxCell>
        <mxCell id="MrmSSrUXQrmDpd-LHNPz-70" value="1" style="text;html=1;strokeColor=none;fillColor=none;align=center;verticalAlign=middle;whiteSpace=wrap;rounded=0;" vertex="1" parent="WIyWlLk6GJQsqaUBKTNV-1">
          <mxGeometry x="50" y="500" width="120" height="30" as="geometry" />
        </mxCell>
        <mxCell id="MrmSSrUXQrmDpd-LHNPz-71" value="0.." style="text;html=1;strokeColor=none;fillColor=none;align=center;verticalAlign=middle;whiteSpace=wrap;rounded=0;" vertex="1" parent="WIyWlLk6GJQsqaUBKTNV-1">
          <mxGeometry x="60" y="280" width="60" height="30" as="geometry" />
        </mxCell>
        <mxCell id="MrmSSrUXQrmDpd-LHNPz-72" value="Containdata" style="text;html=1;strokeColor=none;fillColor=none;align=center;verticalAlign=middle;whiteSpace=wrap;rounded=0;" vertex="1" parent="WIyWlLk6GJQsqaUBKTNV-1">
          <mxGeometry x="50" y="330" width="60" height="30" as="geometry" />
        </mxCell>
        <mxCell id="MrmSSrUXQrmDpd-LHNPz-76" value="Admin" style="swimlane;fontStyle=0;childLayout=stackLayout;horizontal=1;startSize=30;horizontalStack=0;resizeParent=1;resizeParentMax=0;resizeLast=0;collapsible=1;marginBottom=0;whiteSpace=wrap;html=1;fillColor=#f8cecc;strokeColor=#b85450;" vertex="1" parent="WIyWlLk6GJQsqaUBKTNV-1">
          <mxGeometry x="344" y="650" width="140" height="120" as="geometry" />
        </mxCell>
        <mxCell id="MrmSSrUXQrmDpd-LHNPz-79" value="AdminID&lt;br&gt;SystemManage&lt;br&gt;IsAdmin&lt;br&gt;" style="text;strokeColor=none;fillColor=none;align=left;verticalAlign=middle;spacingLeft=4;spacingRight=4;overflow=hidden;points=[[0,0.5],[1,0.5]];portConstraint=eastwest;rotatable=0;whiteSpace=wrap;html=1;" vertex="1" parent="MrmSSrUXQrmDpd-LHNPz-76">
          <mxGeometry y="30" width="140" height="90" as="geometry" />
        </mxCell>
        <mxCell id="MrmSSrUXQrmDpd-LHNPz-80" value="" style="endArrow=classic;html=1;rounded=0;exitX=-0.019;exitY=0.304;exitDx=0;exitDy=0;exitPerimeter=0;entryX=0.6;entryY=1.089;entryDx=0;entryDy=0;entryPerimeter=0;" edge="1" parent="WIyWlLk6GJQsqaUBKTNV-1" source="MrmSSrUXQrmDpd-LHNPz-79" target="MrmSSrUXQrmDpd-LHNPz-67">
          <mxGeometry width="50" height="50" relative="1" as="geometry">
            <mxPoint x="370" y="620" as="sourcePoint" />
            <mxPoint x="420" y="570" as="targetPoint" />
          </mxGeometry>
        </mxCell>
        <mxCell id="MrmSSrUXQrmDpd-LHNPz-81" value="1" style="text;html=1;strokeColor=none;fillColor=none;align=center;verticalAlign=middle;whiteSpace=wrap;rounded=0;" vertex="1" parent="WIyWlLk6GJQsqaUBKTNV-1">
          <mxGeometry x="110" y="610" width="60" height="30" as="geometry" />
        </mxCell>
        <mxCell id="MrmSSrUXQrmDpd-LHNPz-82" value="1" style="text;html=1;strokeColor=none;fillColor=none;align=center;verticalAlign=middle;whiteSpace=wrap;rounded=0;" vertex="1" parent="WIyWlLk6GJQsqaUBKTNV-1">
          <mxGeometry x="300" y="710" width="60" height="30" as="geometry" />
        </mxCell>
        <mxCell id="MrmSSrUXQrmDpd-LHNPz-83" value="Check" style="text;html=1;strokeColor=none;fillColor=none;align=center;verticalAlign=middle;whiteSpace=wrap;rounded=0;" vertex="1" parent="WIyWlLk6GJQsqaUBKTNV-1">
          <mxGeometry x="210" y="670" width="60" height="30" as="geometry" />
        </mxCell>
        <mxCell id="MrmSSrUXQrmDpd-LHNPz-84" value="" style="endArrow=classic;html=1;rounded=0;exitX=1.028;exitY=0.2;exitDx=0;exitDy=0;exitPerimeter=0;entryX=0;entryY=0.25;entryDx=0;entryDy=0;" edge="1" parent="WIyWlLk6GJQsqaUBKTNV-1" source="MrmSSrUXQrmDpd-LHNPz-67" target="MrmSSrUXQrmDpd-LHNPz-63">
          <mxGeometry width="50" height="50" relative="1" as="geometry">
            <mxPoint x="370" y="520" as="sourcePoint" />
            <mxPoint x="420" y="470" as="targetPoint" />
            <Array as="points">
              <mxPoint x="470" y="460" />
            </Array>
          </mxGeometry>
        </mxCell>
        <mxCell id="MrmSSrUXQrmDpd-LHNPz-85" value="1" style="text;html=1;strokeColor=none;fillColor=none;align=center;verticalAlign=middle;whiteSpace=wrap;rounded=0;" vertex="1" parent="WIyWlLk6GJQsqaUBKTNV-1">
          <mxGeometry x="180" y="530" width="60" height="30" as="geometry" />
        </mxCell>
        <mxCell id="MrmSSrUXQrmDpd-LHNPz-86" value="0.." style="text;html=1;strokeColor=none;fillColor=none;align=center;verticalAlign=middle;whiteSpace=wrap;rounded=0;" vertex="1" parent="WIyWlLk6GJQsqaUBKTNV-1">
          <mxGeometry x="610" y="310" width="60" height="30" as="geometry" />
        </mxCell>
        <mxCell id="MrmSSrUXQrmDpd-LHNPz-88" value="ContainData" style="text;html=1;strokeColor=none;fillColor=none;align=center;verticalAlign=middle;whiteSpace=wrap;rounded=0;" vertex="1" parent="WIyWlLk6GJQsqaUBKTNV-1">
          <mxGeometry x="370" y="490" width="60" height="30" as="geometry" />
        </mxCell>
        <mxCell id="MrmSSrUXQrmDpd-LHNPz-89" value="Order" style="swimlane;fontStyle=0;childLayout=stackLayout;horizontal=1;startSize=30;horizontalStack=0;resizeParent=1;resizeParentMax=0;resizeLast=0;collapsible=1;marginBottom=0;whiteSpace=wrap;html=1;fillColor=#f8cecc;strokeColor=#b85450;" vertex="1" parent="WIyWlLk6GJQsqaUBKTNV-1">
          <mxGeometry x="620" y="680" width="140" height="150" as="geometry" />
        </mxCell>
        <mxCell id="MrmSSrUXQrmDpd-LHNPz-92" value="OrderId&lt;br&gt;UserID&lt;br&gt;StatusOrder&lt;br&gt;Book [ ]&amp;nbsp;&lt;br&gt;TotalPrice" style="text;strokeColor=none;fillColor=none;align=left;verticalAlign=middle;spacingLeft=4;spacingRight=4;overflow=hidden;points=[[0,0.5],[1,0.5]];portConstraint=eastwest;rotatable=0;whiteSpace=wrap;html=1;" vertex="1" parent="MrmSSrUXQrmDpd-LHNPz-89">
          <mxGeometry y="30" width="140" height="120" as="geometry" />
        </mxCell>
        <mxCell id="MrmSSrUXQrmDpd-LHNPz-93" value="" style="endArrow=classic;html=1;rounded=0;exitX=0.7;exitY=-0.027;exitDx=0;exitDy=0;exitPerimeter=0;entryX=0.933;entryY=0.99;entryDx=0;entryDy=0;entryPerimeter=0;" edge="1" parent="WIyWlLk6GJQsqaUBKTNV-1" source="MrmSSrUXQrmDpd-LHNPz-89" target="MrmSSrUXQrmDpd-LHNPz-40">
          <mxGeometry width="50" height="50" relative="1" as="geometry">
            <mxPoint x="530" y="520" as="sourcePoint" />
            <mxPoint x="580" y="470" as="targetPoint" />
            <Array as="points">
              <mxPoint x="800" y="490" />
            </Array>
          </mxGeometry>
        </mxCell>
        <mxCell id="MrmSSrUXQrmDpd-LHNPz-94" value="1" style="text;html=1;strokeColor=none;fillColor=none;align=center;verticalAlign=middle;whiteSpace=wrap;rounded=0;" vertex="1" parent="WIyWlLk6GJQsqaUBKTNV-1">
          <mxGeometry x="680" y="650" width="60" height="30" as="geometry" />
        </mxCell>
        <mxCell id="MrmSSrUXQrmDpd-LHNPz-95" value="0.." style="text;html=1;strokeColor=none;fillColor=none;align=center;verticalAlign=middle;whiteSpace=wrap;rounded=0;" vertex="1" parent="WIyWlLk6GJQsqaUBKTNV-1">
          <mxGeometry x="750" y="290" width="60" height="30" as="geometry" />
        </mxCell>
        <mxCell id="MrmSSrUXQrmDpd-LHNPz-96" value="Order" style="text;html=1;strokeColor=none;fillColor=none;align=center;verticalAlign=middle;whiteSpace=wrap;rounded=0;" vertex="1" parent="WIyWlLk6GJQsqaUBKTNV-1">
          <mxGeometry x="750" y="470" width="60" height="30" as="geometry" />
        </mxCell>
        <mxCell id="MrmSSrUXQrmDpd-LHNPz-97" value="Review" style="swimlane;fontStyle=0;childLayout=stackLayout;horizontal=1;startSize=30;horizontalStack=0;resizeParent=1;resizeParentMax=0;resizeLast=0;collapsible=1;marginBottom=0;whiteSpace=wrap;html=1;fillColor=#f8cecc;strokeColor=#b85450;" vertex="1" parent="WIyWlLk6GJQsqaUBKTNV-1">
          <mxGeometry x="344" y="830" width="140" height="110" as="geometry" />
        </mxCell>
        <mxCell id="MrmSSrUXQrmDpd-LHNPz-100" value="ReviewID&lt;br&gt;UserID&lt;br&gt;BookId&lt;br&gt;Rating&amp;nbsp;&lt;br&gt;Comment" style="text;strokeColor=none;fillColor=none;align=left;verticalAlign=middle;spacingLeft=4;spacingRight=4;overflow=hidden;points=[[0,0.5],[1,0.5]];portConstraint=eastwest;rotatable=0;whiteSpace=wrap;html=1;" vertex="1" parent="MrmSSrUXQrmDpd-LHNPz-97">
          <mxGeometry y="30" width="140" height="80" as="geometry" />
        </mxCell>
        <mxCell id="MrmSSrUXQrmDpd-LHNPz-101" value="" style="endArrow=classic;html=1;rounded=0;exitX=0.438;exitY=-0.036;exitDx=0;exitDy=0;exitPerimeter=0;entryX=0;entryY=0.75;entryDx=0;entryDy=0;entryPerimeter=0;" edge="1" parent="WIyWlLk6GJQsqaUBKTNV-1" source="MrmSSrUXQrmDpd-LHNPz-97" target="MrmSSrUXQrmDpd-LHNPz-92">
          <mxGeometry width="50" height="50" relative="1" as="geometry">
            <mxPoint x="410" y="810" as="sourcePoint" />
            <mxPoint x="460" y="760" as="targetPoint" />
          </mxGeometry>
        </mxCell>
        <mxCell id="MrmSSrUXQrmDpd-LHNPz-102" value="1" style="text;html=1;strokeColor=none;fillColor=none;align=center;verticalAlign=middle;whiteSpace=wrap;rounded=0;" vertex="1" parent="WIyWlLk6GJQsqaUBKTNV-1">
          <mxGeometry x="384" y="800" width="60" height="30" as="geometry" />
        </mxCell>
        <mxCell id="MrmSSrUXQrmDpd-LHNPz-104" value="0.." style="text;html=1;strokeColor=none;fillColor=none;align=center;verticalAlign=middle;whiteSpace=wrap;rounded=0;" vertex="1" parent="WIyWlLk6GJQsqaUBKTNV-1">
          <mxGeometry x="580" y="770" width="60" height="30" as="geometry" />
        </mxCell>
        <mxCell id="MrmSSrUXQrmDpd-LHNPz-105" value="Has" style="text;html=1;strokeColor=none;fillColor=none;align=center;verticalAlign=middle;whiteSpace=wrap;rounded=0;" vertex="1" parent="WIyWlLk6GJQsqaUBKTNV-1">
          <mxGeometry x="490" y="790" width="60" height="30" as="geometry" />
        </mxCell>
        <mxCell id="MrmSSrUXQrmDpd-LHNPz-106" value="" style="endArrow=classic;html=1;rounded=0;exitX=1.01;exitY=0.187;exitDx=0;exitDy=0;exitPerimeter=0;entryX=-0.033;entryY=0.356;entryDx=0;entryDy=0;entryPerimeter=0;" edge="1" parent="WIyWlLk6GJQsqaUBKTNV-1" source="MrmSSrUXQrmDpd-LHNPz-23" target="MrmSSrUXQrmDpd-LHNPz-50">
          <mxGeometry width="50" height="50" relative="1" as="geometry">
            <mxPoint x="410" y="310" as="sourcePoint" />
            <mxPoint x="460" y="260" as="targetPoint" />
          </mxGeometry>
        </mxCell>
        <mxCell id="MrmSSrUXQrmDpd-LHNPz-107" value="0.." style="text;html=1;strokeColor=none;fillColor=none;align=center;verticalAlign=middle;whiteSpace=wrap;rounded=0;" vertex="1" parent="WIyWlLk6GJQsqaUBKTNV-1">
          <mxGeometry x="320" y="120" width="60" height="30" as="geometry" />
        </mxCell>
        <mxCell id="MrmSSrUXQrmDpd-LHNPz-108" value="1" style="text;html=1;strokeColor=none;fillColor=none;align=center;verticalAlign=middle;whiteSpace=wrap;rounded=0;" vertex="1" parent="WIyWlLk6GJQsqaUBKTNV-1">
          <mxGeometry x="170" y="170" width="60" height="30" as="geometry" />
        </mxCell>
        <mxCell id="MrmSSrUXQrmDpd-LHNPz-109" value="CreditCard" style="swimlane;fontStyle=0;childLayout=stackLayout;horizontal=1;startSize=30;horizontalStack=0;resizeParent=1;resizeParentMax=0;resizeLast=0;collapsible=1;marginBottom=0;whiteSpace=wrap;html=1;fillColor=#f8cecc;strokeColor=#b85450;" vertex="1" parent="WIyWlLk6GJQsqaUBKTNV-1">
          <mxGeometry x="620" y="950" width="140" height="90" as="geometry" />
        </mxCell>
        <mxCell id="MrmSSrUXQrmDpd-LHNPz-111" value="CardID&lt;br&gt;Balance&lt;br&gt;" style="text;strokeColor=none;fillColor=none;align=left;verticalAlign=middle;spacingLeft=4;spacingRight=4;overflow=hidden;points=[[0,0.5],[1,0.5]];portConstraint=eastwest;rotatable=0;whiteSpace=wrap;html=1;" vertex="1" parent="MrmSSrUXQrmDpd-LHNPz-109">
          <mxGeometry y="30" width="140" height="60" as="geometry" />
        </mxCell>
        <mxCell id="MrmSSrUXQrmDpd-LHNPz-113" value="" style="endArrow=classic;html=1;rounded=0;exitX=0.75;exitY=0;exitDx=0;exitDy=0;entryX=0.533;entryY=1.028;entryDx=0;entryDy=0;entryPerimeter=0;" edge="1" parent="WIyWlLk6GJQsqaUBKTNV-1" source="MrmSSrUXQrmDpd-LHNPz-109" target="MrmSSrUXQrmDpd-LHNPz-92">
          <mxGeometry width="50" height="50" relative="1" as="geometry">
            <mxPoint x="410" y="910" as="sourcePoint" />
            <mxPoint x="460" y="860" as="targetPoint" />
          </mxGeometry>
        </mxCell>
        <mxCell id="MrmSSrUXQrmDpd-LHNPz-114" value="pay for" style="text;html=1;strokeColor=none;fillColor=none;align=center;verticalAlign=middle;whiteSpace=wrap;rounded=0;" vertex="1" parent="WIyWlLk6GJQsqaUBKTNV-1">
          <mxGeometry x="700" y="870" width="60" height="30" as="geometry" />
        </mxCell>
        <mxCell id="MrmSSrUXQrmDpd-LHNPz-115" value="00.." style="text;html=1;strokeColor=none;fillColor=none;align=center;verticalAlign=middle;whiteSpace=wrap;rounded=0;" vertex="1" parent="WIyWlLk6GJQsqaUBKTNV-1">
          <mxGeometry x="690" y="830" width="60" height="30" as="geometry" />
        </mxCell>
        <mxCell id="MrmSSrUXQrmDpd-LHNPz-116" value="1" style="text;html=1;strokeColor=none;fillColor=none;align=center;verticalAlign=middle;whiteSpace=wrap;rounded=0;" vertex="1" parent="WIyWlLk6GJQsqaUBKTNV-1">
          <mxGeometry x="710" y="920" width="60" height="30" as="geometry" />
        </mxCell>
        <mxCell id="MrmSSrUXQrmDpd-LHNPz-117" value="Category" style="swimlane;fontStyle=0;childLayout=stackLayout;horizontal=1;startSize=30;horizontalStack=0;resizeParent=1;resizeParentMax=0;resizeLast=0;collapsible=1;marginBottom=0;whiteSpace=wrap;html=1;fillColor=#f8cecc;strokeColor=#b85450;" vertex="1" parent="WIyWlLk6GJQsqaUBKTNV-1">
          <mxGeometry x="160" y="20" width="140" height="90" as="geometry" />
        </mxCell>
        <mxCell id="MrmSSrUXQrmDpd-LHNPz-120" value="CatID&lt;br&gt;Name" style="text;strokeColor=none;fillColor=none;align=left;verticalAlign=middle;spacingLeft=4;spacingRight=4;overflow=hidden;points=[[0,0.5],[1,0.5]];portConstraint=eastwest;rotatable=0;whiteSpace=wrap;html=1;" vertex="1" parent="MrmSSrUXQrmDpd-LHNPz-117">
          <mxGeometry y="30" width="140" height="60" as="geometry" />
        </mxCell>
        <mxCell id="MrmSSrUXQrmDpd-LHNPz-121" value="" style="endArrow=classic;html=1;rounded=0;exitX=1;exitY=0.25;exitDx=0;exitDy=0;entryX=0.5;entryY=0;entryDx=0;entryDy=0;" edge="1" parent="WIyWlLk6GJQsqaUBKTNV-1" source="MrmSSrUXQrmDpd-LHNPz-117" target="MrmSSrUXQrmDpd-LHNPz-36">
          <mxGeometry width="50" height="50" relative="1" as="geometry">
            <mxPoint x="430" y="210" as="sourcePoint" />
            <mxPoint x="480" y="160" as="targetPoint" />
            <Array as="points">
              <mxPoint x="630" y="70" />
            </Array>
          </mxGeometry>
        </mxCell>
        <mxCell id="MrmSSrUXQrmDpd-LHNPz-122" value="1" style="text;html=1;strokeColor=none;fillColor=none;align=center;verticalAlign=middle;whiteSpace=wrap;rounded=0;" vertex="1" parent="WIyWlLk6GJQsqaUBKTNV-1">
          <mxGeometry x="665" y="90" width="60" height="30" as="geometry" />
        </mxCell>
        <mxCell id="MrmSSrUXQrmDpd-LHNPz-123" value="0.." style="text;html=1;strokeColor=none;fillColor=none;align=center;verticalAlign=middle;whiteSpace=wrap;rounded=0;" vertex="1" parent="WIyWlLk6GJQsqaUBKTNV-1">
          <mxGeometry x="284" y="20" width="60" height="30" as="geometry" />
        </mxCell>
        <mxCell id="MrmSSrUXQrmDpd-LHNPz-124" value="" style="endArrow=classic;html=1;rounded=0;exitX=0.083;exitY=0;exitDx=0;exitDy=0;exitPerimeter=0;" edge="1" parent="WIyWlLk6GJQsqaUBKTNV-1" source="MrmSSrUXQrmDpd-LHNPz-55" target="MrmSSrUXQrmDpd-LHNPz-23">
          <mxGeometry width="50" height="50" relative="1" as="geometry">
            <mxPoint x="430" y="310" as="sourcePoint" />
            <mxPoint x="480" y="260" as="targetPoint" />
            <Array as="points">
              <mxPoint x="440" y="280" />
            </Array>
          </mxGeometry>
        </mxCell>
        <mxCell id="MrmSSrUXQrmDpd-LHNPz-125" value="0.." style="text;html=1;strokeColor=none;fillColor=none;align=center;verticalAlign=middle;whiteSpace=wrap;rounded=0;" vertex="1" parent="WIyWlLk6GJQsqaUBKTNV-1">
          <mxGeometry x="190" y="215" width="60" height="30" as="geometry" />
        </mxCell>
        <mxCell id="MrmSSrUXQrmDpd-LHNPz-126" value="1" style="text;html=1;strokeColor=none;fillColor=none;align=center;verticalAlign=middle;whiteSpace=wrap;rounded=0;" vertex="1" parent="WIyWlLk6GJQsqaUBKTNV-1">
          <mxGeometry x="490" y="460" width="60" height="30" as="geometry" />
        </mxCell>
        <mxCell id="MrmSSrUXQrmDpd-LHNPz-127" value="Publisher" style="swimlane;fontStyle=0;childLayout=stackLayout;horizontal=1;startSize=30;horizontalStack=0;resizeParent=1;resizeParentMax=0;resizeLast=0;collapsible=1;marginBottom=0;whiteSpace=wrap;html=1;fillColor=#f8cecc;strokeColor=#b85450;" vertex="1" parent="WIyWlLk6GJQsqaUBKTNV-1">
          <mxGeometry x="120" y="800" width="140" height="80" as="geometry" />
        </mxCell>
        <mxCell id="MrmSSrUXQrmDpd-LHNPz-130" value="PublisherID&lt;br&gt;Name" style="text;strokeColor=none;fillColor=none;align=left;verticalAlign=middle;spacingLeft=4;spacingRight=4;overflow=hidden;points=[[0,0.5],[1,0.5]];portConstraint=eastwest;rotatable=0;whiteSpace=wrap;html=1;" vertex="1" parent="MrmSSrUXQrmDpd-LHNPz-127">
          <mxGeometry y="30" width="140" height="50" as="geometry" />
        </mxCell>
        <mxCell id="MrmSSrUXQrmDpd-LHNPz-131" value="" style="endArrow=classic;html=1;rounded=0;exitX=0.3;exitY=-0.058;exitDx=0;exitDy=0;exitPerimeter=0;entryX=-0.022;entryY=0.082;entryDx=0;entryDy=0;entryPerimeter=0;" edge="1" parent="WIyWlLk6GJQsqaUBKTNV-1" source="MrmSSrUXQrmDpd-LHNPz-127" target="MrmSSrUXQrmDpd-LHNPz-40">
          <mxGeometry width="50" height="50" relative="1" as="geometry">
            <mxPoint x="450" y="710" as="sourcePoint" />
            <mxPoint x="570" y="260" as="targetPoint" />
            <Array as="points">
              <mxPoint x="480" y="520" />
            </Array>
          </mxGeometry>
        </mxCell>
        <mxCell id="MrmSSrUXQrmDpd-LHNPz-132" value="0.." style="text;html=1;strokeColor=none;fillColor=none;align=center;verticalAlign=middle;whiteSpace=wrap;rounded=0;" vertex="1" parent="WIyWlLk6GJQsqaUBKTNV-1">
          <mxGeometry x="120" y="770" width="60" height="30" as="geometry" />
        </mxCell>
        <mxCell id="MrmSSrUXQrmDpd-LHNPz-133" value="0.." style="text;html=1;strokeColor=none;fillColor=none;align=center;verticalAlign=middle;whiteSpace=wrap;rounded=0;" vertex="1" parent="WIyWlLk6GJQsqaUBKTNV-1">
          <mxGeometry x="570" y="150" width="60" height="30" as="geometry" />
        </mxCell>
        <mxCell id="MrmSSrUXQrmDpd-LHNPz-134" value="Author" style="swimlane;fontStyle=0;childLayout=stackLayout;horizontal=1;startSize=40;horizontalStack=0;resizeParent=1;resizeParentMax=0;resizeLast=0;collapsible=1;marginBottom=0;whiteSpace=wrap;html=1;fillColor=#f8cecc;strokeColor=#b85450;" vertex="1" parent="WIyWlLk6GJQsqaUBKTNV-1">
          <mxGeometry x="410" y="980" width="140" height="130" as="geometry" />
        </mxCell>
        <mxCell id="MrmSSrUXQrmDpd-LHNPz-137" value="ID&lt;br&gt;Name&lt;br&gt;book[ ]&amp;nbsp;" style="text;strokeColor=none;fillColor=none;align=left;verticalAlign=middle;spacingLeft=4;spacingRight=4;overflow=hidden;points=[[0,0.5],[1,0.5]];portConstraint=eastwest;rotatable=0;whiteSpace=wrap;html=1;" vertex="1" parent="MrmSSrUXQrmDpd-LHNPz-134">
          <mxGeometry y="40" width="140" height="90" as="geometry" />
        </mxCell>
        <mxCell id="MrmSSrUXQrmDpd-LHNPz-138" value="" style="endArrow=classic;html=1;rounded=0;exitX=1.024;exitY=0.363;exitDx=0;exitDy=0;exitPerimeter=0;" edge="1" parent="WIyWlLk6GJQsqaUBKTNV-1" source="MrmSSrUXQrmDpd-LHNPz-137">
          <mxGeometry width="50" height="50" relative="1" as="geometry">
            <mxPoint x="390" y="910" as="sourcePoint" />
            <mxPoint x="720" y="330" as="targetPoint" />
            <Array as="points">
              <mxPoint x="580" y="900" />
              <mxPoint x="810" y="840" />
            </Array>
          </mxGeometry>
        </mxCell>
        <mxCell id="MrmSSrUXQrmDpd-LHNPz-140" value="0.." style="text;html=1;strokeColor=none;fillColor=none;align=center;verticalAlign=middle;whiteSpace=wrap;rounded=0;" vertex="1" parent="WIyWlLk6GJQsqaUBKTNV-1">
          <mxGeometry x="540" y="1050" width="60" height="30" as="geometry" />
        </mxCell>
      </root>
    </mxGraphModel>
  </diagram>
</mxfile>
